# xmcd
#
# Track frame offsets:
#	150
#	66868
#	76501
#	87766
#	99957
#	112964
#	122542
#
# Disc length: 1774 seconds
#
# Revision: 1
# Processed by: cddbd v1.5.2PL0 Copyright (c) Steve Scherf et al.
# Submitted via: audiograbber 1.83.01
#
DISCID=4206ec07
DTITLE=Ray Reeves - Compilation
DYEAR=1975
DGENRE=Country
TTITLE0=Ray Reeves - A Phone Call From God
TTITLE1=Curtis McPeake - Home Sweet Home
TTITLE2=Tommy Hill - The Waltz You Saved For Me
TTITLE3=Cowboy Copas - Wildwood Flower
TTITLE4=Randy Charles - Shenandoah
TTITLE5=Hoss Linneman - Maiden's Prayer
TTITLE6=Little Roy Wiggins - Will The Circle Be Unbroken
EXTD=Gusto Records, Inc., Power Pak, Nashville, TN
EXTT0=
EXTT1=
EXTT2=
EXTT3=
EXTT4=
EXTT5=
EXTT6=
PLAYORDER=
